<svg xmlns="http://www.w3.org/2000/svg" viewBox="0 0 512 512">
  <rect width="512" height="512" rx="96" fill="#0b3d5c"/>
  <path d="M0 340 Q 90 300 180 340 T 360 340 T 540 340 V 512 H 0 Z" fill="#0f6e8c"/>
  <path d="M0 380 Q 90 350 180 380 T 360 380 T 540 380 V 512 H 0 Z" fill="#12879e"/>
  <path d="M310 175c-24-22-60-24-84-2-10 9-15 21-14 33-16-6-33-3-45 9-17 17-17 45 1 62 3 3 7 6 10 8-9 15-8 34 4 47 15 17 41 18 58 3 3-3 6-6 8-10 12 8 28 8 40-2 19-16 21-45 5-63 14-10 21-27 17-44-5-22-24-36-46-38 3-1 5-3 8-5 16-13 18-38 6-56z" fill="#ff6b4a"/>
  <circle cx="238" cy="205" r="7" fill="#0b3d5c"/>
</svg>
